Coordinates
version=1
nRows=26
nColumns=24
inDegrees=yes

Units are S.I. units (second, meters, Newtons, ...)
Angles are in degrees.

endheader
time	pelvis_tilt	pelvis_list	pelvis_rotation	pelvis_tx	pelvis_ty	pelvis_tz	hip_flexion_r	hip_adduction_r	hip_rotation_r	knee_angle_r	ankle_angle_r	subtalar_angle_r	mtp_angle_r	hip_flexion_l	hip_adduction_l	hip_rotation_l	knee_angle_l	ankle_angle_l	subtalar_angle_l	mtp_angle_l	lumbar_extension	lumbar_bending	lumbar_rotation
      1.27100000	      0.64703463	     -6.73446868	     -3.07327669	      0.01497504	      1.04453606	      0.30716427	    -20.93520924	     11.90983129	     -0.89100301	     -1.65630267	      2.54451437	     -4.88089468	      5.86530935	     21.11435667	     -3.25051768	     -9.06658196	      7.59709608	      6.26862750	      6.52387238	      3.62457947	      2.53071408	     12.15168388	      3.73144262
      1.27516667	      0.61218423	     -6.67767439	     -3.09488064	      0.02085577	      1.04418566	      0.30722859	    -21.04930302	     11.80725102	     -0.83414268	     -1.99352662	      2.50272776	     -4.87894174	      5.86791818	     21.11010316	     -3.15789128	     -8.96677719	      7.27079702	      6.26415268	      6.54153586	      3.62453981	      2.56032243	     12.13381726	      3.73565445
      1.27933333	      0.61036196	     -6.62821473	     -3.05392991	      0.02679367	      1.04386394	      0.30730721	    -21.18332980	     11.74383154	     -0.94635539	     -2.33844219	      2.09656066	     -4.82248885	      5.91660463	     21.04795524	     -3.07192105	     -8.55754287	      6.94389621	      6.60829981	      6.67983162	      3.62037267	      2.72667086	     11.87354293	      3.78007413
      1.28350000	      0.60784441	     -6.58431325	     -3.08968664	      0.03267454	      1.04360999	      0.30740355	    -21.30436232	     11.64837764	     -0.93541157	     -2.73019218	      2.00608438	     -4.82360533	      5.93118503	     21.00178312	     -3.00969127	     -8.41753946	      6.55675836	      6.61607327	      6.69336642	      3.61870015	      2.79619735	     11.82424213	      3.78626251
      1.28766667	      0.59900136	     -6.52347557	     -3.13477811	      0.03865989	      1.04337553	      0.30751039	    -21.41486121	     11.53093115	     -0.93532425	     -3.12882821	      1.83586670	     -4.80556003	      5.95184557	     20.93209452	     -2.93708322	     -8.17572704	      6.18564816	      6.63968760	      6.71404972	      3.61830213	      2.87153111	     11.72003476	      3.80397538
      1.29183333	      0.61306730	     -6.40815837	     -3.01251985	      0.04487009	      1.04308775	      0.30737722	    -21.56207846	     11.41015706	     -1.14313243	     -3.45656033	      1.35197572	     -4.74473927	      6.06255615	     20.83818500	     -2.74569256	     -7.71437473	      5.81595825	      6.68776468	      6.50458284	      3.61514425	      2.94606743	     11.54953222	      3.81210324
      1.29600000	      0.59651840	     -6.33929750	     -3.11081190	      0.05094077	      1.04292889	      0.30753592	    -21.64628821	     11.26174021	     -1.09340720	     -3.90366706	      1.25484514	     -4.73013238	      6.08067471	     20.74049614	     -2.68702597	     -7.48599021	      5.45988102	      6.63461997	      6.51234580	      3.61615538	      2.99985226	     11.47151818	      3.82193960
      1.30016667	      0.63739544	     -6.19249095	     -3.04556411	      0.05726583	      1.04277642	      0.30738568	    -21.78984508	     11.07378437	     -1.37562350	     -4.29678223	      0.73167793	     -4.58920729	      6.29618827	     20.54655402	     -2.47775761	     -6.87335413	      5.18877508	      6.34939734	      5.86975068	      3.62975546	      3.03184613	     11.28351890	      3.83295184
      1.30433333	      0.63197788	     -6.13768214	     -3.13352310	      0.06332389	      1.04267759	      0.30751544	    -21.86209305	     10.93888133	     -1.29229249	     -4.78430283	      0.63894157	     -4.56163918	      6.31606630	     20.42922228	     -2.43220515	     -6.64214955	      4.83339001	      6.27271455	      5.88704064	      3.63297851	      3.10208771	     11.18772460	      3.85017621
      1.30850000	      0.62231777	     -6.05692672	     -3.23646057	      0.06949317	      1.04261640	      0.30764827	    -21.91601713	     10.76743616	     -1.25892017	     -5.29407635	      0.45444380	     -4.52229593	      6.33840104	     20.28388845	     -2.36389552	     -6.37514476	      4.52735782	      6.13849826	      5.88963245	      3.63708559	      3.17786103	     11.06720450	      3.87725815
      1.31266667	      0.66500168	     -5.87150394	     -3.15015990	      0.07601318	      1.04254418	      0.30750079	    -22.03853516	     10.54440332	     -1.54228766	     -5.70469409	     -0.30222391	     -4.26599558	      6.49751663	     20.06359949	     -2.11015288	     -5.89049715	      4.29635697	      5.48357306	      5.30009435	      3.66724975	      3.28932561	     10.75776143	      3.98851719
      1.31683333	      0.63498660	     -5.69507630	     -3.26657931	      0.08253488	      1.04254133	      0.30754280	    -22.05878620	     10.24986973	     -1.59592964	     -6.22894831	     -0.58988491	     -4.13740665	      6.61073096	     19.85209299	     -1.93407317	     -5.45193084	      4.14114955	      5.12666798	      4.99915099	      3.69732131	      3.25236864	     10.63918772	      4.01734153
      1.32100000	      0.67908701	     -5.66513238	     -3.34318767	      0.08853103	      1.04262009	      0.30764217	    -22.09578278	     10.13519909	     -1.60555380	     -6.86327607	     -0.73501312	     -4.12037317	      6.63530757	     19.66693831	     -1.90975369	     -5.28057853	      3.82521057	      4.98787134	      4.95214693	      3.70477756	      3.35398892	     10.53941537	      4.04305482
      1.32516667	      0.84007721	     -5.43086249	     -3.31292482	      0.09508502	      1.04285294	      0.30725923	    -22.25846095	      9.78955947	     -2.08784005	     -7.43017680	     -1.35626080	     -3.66607716	      7.10806338	     19.21280324	     -1.59431248	     -4.42917725	      3.80190636	      3.91921536	      3.26453615	      3.86723596	      3.24271601	     10.34771605	      4.17334506
      1.32933333	      0.83269289	     -5.35804079	     -3.42636757	      0.10126396	      1.04296402	      0.30741184	    -22.21354231	      9.61339932	     -2.05833829	     -8.11281266	     -1.54052974	     -3.64378428	      7.13650330	     19.03772298	     -1.53754241	     -4.23880059	      3.55529895	      3.76152357	      3.31357475	      3.87845116	      3.30176471	     10.20827089	      4.19380649
      1.33350000	      0.81266027	     -5.13140226	     -3.49435305	      0.10799031	      1.04308355	      0.30748629	    -22.17059910	      9.28326908	     -2.27260698	     -8.71211988	     -2.39747637	     -3.37405241	      7.30334966	     18.82513638	     -1.29097842	     -4.10839879	      3.40990633	      2.85784240	      3.01855754	      3.93724331	      3.45905718	      9.84534587	      4.29888716
      1.33766667	      0.83683936	     -4.96351094	     -3.58727329	      0.11445993	      1.04329945	      0.30749804	    -22.12034893	      8.98938341	     -2.46421953	     -9.42547090	     -2.98363230	     -3.16687524	      7.51876949	     18.56931486	     -1.10833437	     -3.85478656	      3.26529418	      2.14111359	      2.48293061	      4.02439006	      3.50353865	      9.64080520	      4.38096321
      1.34183333	      0.85544949	     -4.87365031	     -3.71401832	      0.12064261	      1.04355199	      0.30765335	    -22.02397364	      8.77660281	     -2.47978342	    -10.23849630	     -3.15656799	     -3.16155393	      7.55514847	     18.35214914	     -1.03487003	     -3.65827544	      3.04516827	      1.98145618	      2.45441373	      4.04079337	      3.54344994	      9.54895846	      4.39664900
      1.34600000	      0.92887706	     -4.60617262	     -3.78977630	      0.12739213	      1.04390694	      0.30752772	    -22.00610793	      8.35266221	     -2.72787508	    -10.95110389	     -4.03225448	     -2.72170300	      8.05050856	     17.96008275	     -0.72910741	     -3.03154663	      3.07007373	      0.69348976	      1.01023925	      4.25395814	      3.65345459	      9.30924608	      4.58053483
      1.35016667	      0.91572666	     -4.45594371	     -3.85280684	      0.13371779	      1.04414003	      0.30753359	    -21.81391882	      8.08552071	     -3.01892082	    -11.83141068	     -4.60643573	     -2.56149936	      8.26382969	     17.81479136	     -0.55333202	     -3.05414335	      2.79416166	      0.18492078	      0.62234447	      4.34796623	      3.61416946	      9.01697807	      4.64295684
      1.35433333	      0.93371223	     -4.25948447	     -3.97778899	      0.14020091	      1.04450427	      0.30762897	    -21.65240863	      7.73511710	     -3.18533426	    -12.70730978	     -5.31646353	     -2.32557845	      8.50516989	     17.56588337	     -0.35178952	     -2.88427246	      2.64162879	     -0.52560715	      0.15536814	      4.45111923	      3.69187545	      8.76668142	      4.72169565
      1.35850000	      0.98347171	     -4.08131808	     -4.05156920	      0.14649493	      1.04489180	      0.30744180	    -21.47761777	      7.39261439	     -3.41678038	    -13.66354073	     -5.80978485	     -2.06317690	      9.39228517	     17.25933745	     -0.14180831	     -2.18165097	      2.55879690	     -1.42147645	     -1.42094354	      4.84988124	      3.64431851	      8.61020525	      4.86370877
      1.36266667	      0.99422905	     -3.87144304	     -4.15762298	      0.15294049	      1.04527891	      0.30756518	    -21.24998505	      7.03131627	     -3.62334641	    -14.62949940	     -6.53303017	     -1.86024344	      9.59229364	     17.06635307	      0.08018032	     -2.28422421	      2.30709430	     -1.88834793	     -1.52231432	      4.93416649	      3.73580630	      8.32995723	      4.90627761
      1.36683333	      1.02160985	     -3.65050045	     -4.30377364	      0.15938139	      1.04574200	      0.30768410	    -21.01825354	      6.62778444	     -3.73353647	    -15.61849881	     -7.34995843	     -1.61190799	     10.02671325	     16.80104841	      0.30029518	     -2.06611501	      2.16686095	     -2.62614728	     -2.07569935	      5.11285132	      3.87995191	      8.10463703	      4.98217231
      1.37100000	      1.02364616	     -3.43125564	     -4.40721982	      0.16571645	      1.04616066	      0.30771108	    -20.71154891	      6.23642148	     -3.95742209	    -16.68428848	     -8.13424259	     -1.37728422	     10.44032284	     16.60596338	      0.53698949	     -1.95183794	      1.95011327	     -3.24608344	     -2.67472107	      5.27635528	      3.92907019	      7.81527383	      5.05983987
      1.37516667	      1.00887361	     -3.22637769	     -4.49085476	      0.17192794	      1.04655515	      0.30772303	    -20.35044156	      5.86579886	     -4.18266140	    -17.82703497	     -8.61430372	     -1.27958241	     10.57059070	     16.46427369	      0.76158521	     -1.93387667	      1.66066690	     -3.53464176	     -2.86896901	      5.32494064	      3.79990912	      7.59108769	      5.08262809
